<?xml version="1.0" encoding="utf-8"?>
<!-- Generator: Adobe Illustrator 19.2.1, SVG Export Plug-In . SVG Version: 6.00 Build 0)  -->
<svg version="1.1" id="layer" xmlns="http://www.w3.org/2000/svg" xmlns:xlink="http://www.w3.org/1999/xlink" x="0px" y="0px"
	 viewBox="0 0 652 652" style="enable-background:new 0 0 652 652;" xml:space="preserve">
<style type="text/css">
	.st0{fill:#3D215D;}
	.st1{fill:#808285;}
</style>
<g>
	<path class="st0" d="M357.6,245.4v16.1h11.3l-12.7,47.1c0,0-15.5-62.4-15.7-63.3h-16.4c-0.2,0.9-17,63.3-17,63.3l-11.7-47.1h11.8
		v-16.1h-47.4v16.1h10.5c0,0,18.1,72.5,18.3,73.3h25.4c0.2-0.9,12.1-46.2,12.1-46.2s11.3,45.3,11.5,46.2h25.4
		c0.2-0.9,19.3-73.3,19.3-73.3H393v-16.1H357.6z"/>
	<path class="st1" d="M589.7,364.6c0,0,0.1-0.3,0.4-0.4c2.3-0.3,4.8,0,6.2,0.4c0.1,0,0.1,0.3,0.4,0.4c0.5,0.1,0.8,0.1,1.2,0.4
		c1.3,0.8,2.6,1.9,3.9,3.3c0.4,0.4,1,0.9,1.2,1.1c0.1,0.1-0.1,0.6,0,0.7c0,0,0.4-0.1,0.4,0c0.1,0.1-0.1,0.6,0,0.7c0,0,0.4,0,0.4,0
		c0.1,0.1-0.1,0.6,0,0.7c0,0,0.4,0,0.4,0c0.1,0.1-0.1,0.6,0,0.7c0.7,0.6,0.7,2.2,1.2,3.7c0.6,1.8,0.6,6.7,0,9.2
		c-0.1,0.3-0.4,0.3-0.4,0.4c-0.2,0.8-0.1,1.8-0.4,2.6c-0.1,0.1-0.4,0-0.4,0.4c0,0.5-0.7,0.8-0.8,1.5c0,0.7-1.5,1.4-1.5,2.2
		c0,0.2-2,2.5-2.7,2.6c-0.5,0-0.5,0.5-0.8,0.7c-0.1,0.1-0.7-0.1-0.8,0c-0.3,0.3-0.3,0.3-0.8,0.4c-0.3,0.1-0.7,0.2-1.2,0.4
		c-0.4,0.1-3.9,0.7-5.8,0.4c0,0-0.2-0.3-0.4-0.4c-0.7-0.2-1.6-0.3-2.3-0.7c-1.4-0.9-2.7-1.9-3.9-3.3c-0.4-0.4-1-0.8-1.2-1.1
		c-0.1-0.1,0.1-0.6,0-0.7c0,0-0.4,0-0.4,0c-0.1-0.1,0.1-0.6,0-0.7c-0.1,0-0.4,0-0.4,0c-0.1-0.1,0.1-0.6,0-0.7c0,0-0.4,0-0.4,0
		c-0.1-0.1,0.1-0.6,0-0.7c-0.7-0.6-0.7-2.2-1.2-3.7c-0.6-1.8-0.6-6.9,0-9.2c0.1-0.3,0.4-0.3,0.4-0.4c0.3-1,0.1-1.9,0.4-2.6
		c0.1-0.2,0.4,0,0.4-0.4c0-0.5,0.7-0.8,0.8-1.5c0-0.8,1-1.1,1.5-1.8c0.1-0.1-0.1-0.6,0-0.7c0.4-0.3,1.8-1.9,2.3-2.2
		c0.3-0.2,0.8-0.2,1.2-0.4c0.2-0.1,0.6-0.7,0.8-0.7C588.2,364.6,588.8,364.8,589.7,364.6 M588.6,367.9c-0.4,0.3-0.8,0.4-1.2,0.7
		c-0.6,0.6-0.5,0.9-0.8,1.5c-0.1,0.1-0.7,0.2-0.8,0.4c-0.3,0.5-0.2,1-0.4,1.5c-0.2,0.5-0.6,0.9-0.8,1.5c-1,3.1-1.1,9.7-0.4,12.5
		c0.1,0.5,0.2,1.3,0.4,1.8c0.1,0.3,0.3,0.2,0.4,0.4c0.3,0.5,0.6,2.2,0.8,2.6c0.1,0.1,0.7,0.3,0.8,0.4c0.1,0.1-0.1,0.6,0,0.7
		c0.3,0.3,1,1,1.2,1.1c0.7,0.6,1.5,1.1,2.3,1.1c0.3,0,0.3,0.4,0.4,0.4c1.6,0.3,4.1-0.3,4.3-0.4c1-0.4,1.7-0.6,2.3-1.1
		c1.3-1,1.8-2.5,2.3-3.7c0.2-0.6,0.6-1,0.8-1.5c1-3.3,1.1-9.4,0.4-12.5c-0.2-0.6-0.2-0.9-0.4-1.5c-0.3-1-0.6-1.4-0.8-1.8
		c-0.2-0.6-0.1-0.9-0.4-1.5c-0.1-0.1-0.7-0.2-0.8-0.4c-0.1-0.2,0.1-0.5,0-0.7c0-0.1-0.7-0.3-0.8-0.4c-0.5-0.6-0.9-1.4-1.5-1.5
		c-0.4,0-0.2-0.3-0.4-0.4c-1.2-0.4-3.3-0.5-4.6-0.4c-0.3,0-0.3,0.3-0.4,0.4C589.2,367.5,589.2,367.4,588.6,367.9"/>
	<path class="st1" d="M81.6,364.6h8.1c0.8,1.3-1.9,2-2.3,3.3v18.7c0,2.3-0.4,4.9,0,6.2c0.4,1.6,1.4,1.4,2.3,2.6
		c0.2,0.3,0.5,0.7,0,0.7h-7.7c-2-0.1,1.6-1.7,1.5-2.6v-19.5c0-2.3,0.4-4.8,0-6.2c-0.3-1.1-1.1-1.6-1.5-2.2
		C81.7,365.4,80.8,365.3,81.6,364.6"/>
	<path class="st1" d="M201.4,365.7c-0.6,1.8-2,2.7-2.7,4.4c-1.7-0.5-2.4-1.9-3.5-2.9c-0.3-0.2-1.3,0.2-1.5,0c-0.5-0.5-0.5-0.1-1.2,0
		c-1.2,0.2-2.6,0.3-3.5,1.5c-0.1,0.1,0.1,0.6,0,0.7c-0.4,0.3,0,1.1-0.4,1.5c-0.4,0.3-0.3,0.4,0,1.5c0.3,0.9,0.5,1.4,1.2,2.2
		c1.3,1.5,3.4,2.9,5.4,4.4c0.3,0.2,0.5,0.6,0.8,0.7c0.6,0.4,1.4,0.6,1.9,1.1c0.8,0.7,1.5,1.7,2.3,2.6c0.4,0.5,0.5,0.5,0.8,1.5
		c0.1,0.4,0.7,3.5,0.4,5.1c0,0-0.3,0.2-0.4,0.4c-0.2,0.6,0,1-0.4,1.8c-0.1,0.2-0.7,0.2-0.8,0.4c-0.1,0.2,0.1,0.6,0,0.7
		c-0.2,0.2-1.1,1.1-1.5,1.5c-0.3,0.3-0.8,0.1-1.2,0.4c-0.5,0.4-0.3,0.5-1.2,0.7c0,0-1.1,0.3-1.2,0.4c0,0,0,0.4,0,0.4
		c-3.6,0.7-7.2-0.8-11.2-1.5c0.3-2,1.9-2.9,2.3-4.8c0.6-0.1,1.3,0.4,1.5,0.7c0.1,0.1-0.1,0.6,0,0.7c0.5,0.4,1.7,1.9,2.7,2.2
		c0.3,0.1,1.3-0.2,1.5,0c0,0,0,0.4,0,0.4c1.6,0.1,4.4-0.9,5-1.8c0.1-0.1-0.1-0.6,0-0.7c0,0,0.4,0,0.4,0c0.1-0.1-0.1-0.6,0-0.7
		c0,0,0.4,0,0.4,0c0.2-0.9,0.2-2.8,0-3.7c-0.3-1.5-1.7-2.8-3.1-3.7c-0.2-0.1,0.1-0.3-0.4-0.4c-0.7,0-0.8-1.1-1.5-1.1
		c-0.6,0-0.9-0.9-1.5-1.5c-0.3-0.3-0.9-0.1-1.2-0.4c-0.2-0.2-0.2-0.6-0.4-0.7c-0.3-0.3-0.9-0.1-1.2-0.4c-0.2-0.2-0.2-0.6-0.4-0.7
		c-0.4-0.4-1.2-0.7-1.5-1.1c-0.2-0.3-0.2-0.8-0.4-1.1c-0.1-0.2-0.7-0.6-0.8-0.7c-0.6-1.6-0.3-3.2-0.4-5.5c0.8,0.1,0.3-1.1,0.8-1.5
		c0.2-0.2,1.1-1,1.2-1.5c0-0.4,1-0.9,1.9-1.5c0.2-0.1,0.6-0.7,0.8-0.7c0.2-0.1,0.5,0.1,0.8,0C193.1,364.3,198.4,364.9,201.4,365.7"
		/>
	<path class="st1" d="M208.8,364.6h8.1c0.8,1.3-1.9,2-2.3,3.3v18.7c0,2.3-0.4,4.9,0,6.2c0.4,1.6,1.4,1.4,2.3,2.6
		c0.2,0.3,0.5,0.7,0,0.7h-7.7c-2-0.1,1.6-1.7,1.5-2.6v-19.5c0-2.3,0.4-4.8,0-6.2c-0.3-1.1-1.1-1.6-1.5-2.2
		C209,365.4,208.1,365.3,208.8,364.6"/>
	<path class="st1" d="M433.5,365.7c-0.6,1.8-2,2.7-2.7,4.4c-1.7-0.5-2.4-1.9-3.5-2.9c-0.3-0.2-1.3,0.2-1.5,0c-0.5-0.5-0.5-0.1-1.2,0
		c-1.2,0.2-2.6,0.3-3.5,1.5c-0.1,0.1,0.1,0.6,0,0.7c-0.4,0.3,0,1.1-0.4,1.5c-0.4,0.3-0.3,0.4,0,1.5c0.3,0.9,0.5,1.4,1.2,2.2
		c1.3,1.5,3.4,2.9,5.4,4.4c0.3,0.2,0.5,0.6,0.8,0.7c0.6,0.4,1.4,0.6,1.9,1.1c0.8,0.7,1.5,1.7,2.3,2.6c0.4,0.5,0.5,0.5,0.8,1.5
		c0.1,0.4,0.7,3.5,0.4,5.1c0,0-0.3,0.2-0.4,0.4c-0.2,0.6,0,1-0.4,1.8c-0.1,0.2-0.7,0.2-0.8,0.4c-0.1,0.2,0.1,0.6,0,0.7
		c-0.2,0.2-1.1,1.1-1.5,1.5c-0.3,0.3-0.8,0.1-1.2,0.4c-0.5,0.4-0.3,0.5-1.2,0.7c0,0-1.1,0.3-1.2,0.4c0,0,0,0.4,0,0.4
		c-3.6,0.7-7.2-0.8-11.2-1.5c0.3-2,1.9-2.9,2.3-4.8c0.6-0.1,1.3,0.4,1.5,0.7c0.1,0.1-0.1,0.6,0,0.7c0.5,0.4,1.7,1.9,2.7,2.2
		c0.3,0.1,1.3-0.2,1.5,0c0,0,0,0.4,0,0.4c1.6,0.1,4.4-0.9,5-1.8c0.1-0.1-0.1-0.6,0-0.7c0.1,0,0.4,0,0.4,0c0.1-0.1-0.1-0.6,0-0.7
		c0,0,0.4,0,0.4,0c0.2-0.9,0.2-2.8,0-3.7c-0.3-1.5-1.7-2.8-3.1-3.7c-0.2-0.1,0.1-0.3-0.4-0.4c-0.7,0-0.8-1.1-1.5-1.1
		c-0.6,0-0.9-0.9-1.5-1.5c-0.3-0.3-0.9-0.1-1.2-0.4c-0.2-0.2-0.2-0.6-0.4-0.7c-0.3-0.3-0.9-0.1-1.2-0.4c-0.2-0.2-0.2-0.6-0.4-0.7
		c-0.4-0.4-1.2-0.7-1.5-1.1c-0.3-0.3-0.2-0.8-0.4-1.1c-0.1-0.2-0.7-0.6-0.8-0.7c-0.6-1.6-0.3-3.2-0.4-5.5c0.8,0.1,0.3-1.1,0.8-1.5
		c0.2-0.2,1.1-1,1.2-1.5c0-0.4,1-0.9,1.9-1.5c0.2-0.1,0.6-0.7,0.8-0.7c0.2-0.1,0.5,0.1,0.8,0C425.1,364.3,430.5,364.9,433.5,365.7"
		/>
	<path class="st1" d="M440.5,364.6h8.1c0.6,1.5-1.5,1.5-1.9,3.3c-0.7,2.7,0.5,6.7,0,9.9c0.7,0.7,2.1,0.3,3.1,0.4c2.8,0,7.1,0,10.4,0
		c-0.6-3.3,0.8-7.2,0-9.9c-0.3-1.2-1-1.2-1.5-1.8c-0.5-0.5-1.3-1-0.8-1.8h8.1c0.8,1.1-1.5,1.7-1.9,3.3c-0.7,2.5,0,7.8,0,12.8
		c0,5-0.6,10.2,0,12.5c0.2,0.8,0.7,1.3,1.2,1.8c0.2,0.2,1.5,0.5,0.8,1.1h-7.7c-2-0.1,1.9-2,1.9-2.9v-12.5H447
		c-0.7,0.6-0.4,1.9-0.4,2.9c0,2.2-0.6,7.3,0,9.6c0.3,0.9,0.6,1.3,1.2,1.8c0.2,0.2,1.5,0.5,0.8,1.1h-7.7c-1,0-0.5-0.3-0.4-0.7
		c0.9-0.6,1.7-1.3,2.3-2.2v-18.7c0-2.3,0.4-4.8,0-6.2c-0.3-1.2-1.4-1.8-1.9-2.6C440.6,365.4,439.7,365.2,440.5,364.6"/>
	<path class="st1" d="M473.7,364.6h8.1c0.8,1.3-1.9,2-2.3,3.3v18.7c0,2.3-0.4,4.9,0,6.2c0.4,1.6,1.4,1.4,2.3,2.6
		c0.2,0.3,0.5,0.7,0,0.7h-7.7c-2-0.1,1.6-1.7,1.5-2.6v-19.5c0-2.3,0.4-4.8,0-6.2c-0.3-1.1-1.1-1.6-1.5-2.2
		C473.9,365.4,473,365.3,473.7,364.6"/>
	<path class="st1" d="M544.5,366.1v5.1c0,1.5-1-0.2-1.2-0.4c-1.1-0.9-2.9-3.3-4.6-3.7c-1.3-0.3-3.7-0.1-4.6,0.4
		c-0.1,0.1-0.7-0.1-0.8,0c-0.5,0.6-0.7,0.6-1.5,1.1c-0.2,0.1,0.1,0.3-0.4,0.4c-0.4,0-0.7,0.5-1.2,1.1c-0.4,0.5-0.7,0.8-1.2,1.5
		c-0.1,0.2-0.3,0.3-0.4,0.4c-0.2,0.3-0.7,0.9-0.8,1.5c0,0.7-1.4,3.1-1.5,4.4c-0.5,3.1,0.1,7.6,1.2,9.9c0.1,0.2,0.4,0,0.4,0.4
		c0,0.5,0.7,0.8,0.8,1.5c0,0.3,0.6,0.8,0.8,1.1c0.6,0.9,1.6,1.6,2.7,2.2c0.2,0.1,0.6,0.7,0.8,0.7c1.5,0.5,4.6,0.7,6.2,0.4
		c1.3-0.3,1.9-1.3,3.1-1.8c-0.5-3.3,1-8.6-0.8-10.6c-0.3-0.4-1.1-0.8-1.5-1.1c-0.2-0.3-0.5-0.7,0-0.7h7.7c1.7,0.1-0.3,1-0.4,1.1
		c-0.5,0.6-1,1-1.2,1.8c-0.8,3.2,0.6,8.3,0,11.7c-0.8-0.1-1.1,1.1-1.9,1.1c-0.1,0-0.3,0-0.4,0c-1.7,0.7-5.8,1.5-9.3,1.1
		c-0.4,0-1.3-0.2-1.9-0.4c-0.5-0.1-1.6-0.4-2.3-0.7c-0.2-0.1,0-0.3-0.4-0.4c-0.5,0-0.5-0.6-0.8-0.7c-0.7-0.3-1.1-0.3-1.9-1.1
		c-0.3-0.3-0.9-0.8-1.2-1.1c-0.3-0.3-0.8-0.7-1.2-1.1c-0.1-0.1,0.1-0.6,0-0.7c-0.1-0.1-0.7-0.3-0.8-0.4c-0.1-0.1,0.1-0.6,0-0.7
		c0,0-0.4,0-0.4,0c-0.1-0.1,0.1-0.6,0-0.7c0,0-0.4,0-0.4,0c-0.5-1-0.8-2.3-1.2-3.3c-0.4-1.4-0.7-4.8-0.4-7.3
		c0.2-1.3,0.8-3.2,1.5-4.8c0.1-0.2,0.4,0,0.4-0.4c0-0.5,0.7-0.8,0.8-1.5c0-0.6,1.1-0.7,1.2-1.5c0-0.9,3.5-3.1,4.6-3.7
		c2.3-1.1,5.1-2,9.3-1.5C541.2,364.8,542.7,365.6,544.5,366.1"/>
	<path class="st1" d="M14.6,365.3c-0.1-0.3,0.1-0.3,0.4-0.4h8.1c1,0,0.5,0.3,0.4,0.7c-1.7,1.4-1.9,1.2-2.3,2.6c-0.4,1.4,0,5.9,0,9.9
		c0,4.3-0.1,8.2,0.4,10.3c0.2,0.7,0.1,1.1,0.4,1.8c0.5,1.2,1.2,1.7,2.3,2.6c0.2,0.1,0.6,0.7,0.8,0.7c0.1,0.1,0.7-0.1,0.8,0
		c0.4,0.5,0.8,0.2,1.5,0.4c0.4,0.1,0.6,0.4,1.2,0.4c0.9,0,2.4-0.5,3.5-1.1c0.4-0.2,1.5-0.9,1.9-1.5c0.1-0.1-0.1-0.6,0-0.7
		c0,0,0.4,0,0.4,0c0.1-0.1-0.1-0.6,0-0.7c0.3-0.2,0.3-0.3,0.4-0.7c0.4-1.7,0.4-6.3,0.4-10.6c0-4,0.9-10.2-0.8-12.1
		c-0.2-0.3-0.9-0.6-1.5-1.1c-0.2-0.3-0.5-0.7,0-0.7h7.4c1.5-0.2,0,1-0.4,1.5c-0.6,0.7-1.2,0.7-1.5,1.8c-0.4,1.4,0,3.6,0,5.5v5.5
		c0,4.1,0.5,8.9-0.4,11.8c0,0-0.3,0.1-0.4,0.4c-0.1,0.2,0.1,0.5,0,0.7c-0.1,0.2-0.7,0.2-0.8,0.4c-0.1,0.2,0.1,0.6,0,0.7
		c-0.3,0.3-1.1,0.7-1.5,1.1c-0.2,0.1-0.2,0.6-0.4,0.7c-0.1,0.1-0.7-0.1-0.8,0c-0.6,0.7-1.4,1-2.7,1.5c-0.1,0.1-0.7-0.1-0.8,0
		c0,0,0,0.4,0,0.4c-1.7,0.3-5.1,0.2-7-0.4c0,0-0.1-0.3-0.4-0.4c-0.7-0.2-0.8-0.3-1.5-0.7c-0.4-0.2-1.4-1-1.9-1.5
		c-0.2-0.2-0.9-0.7-1.2-1.1c-0.1-0.1,0.1-0.6,0-0.7c0,0-0.4,0-0.4,0c-0.1-0.1,0.1-0.6,0-0.7c-0.3-0.2-0.3-0.3-0.4-0.7
		c-0.9-3.3-0.4-11.6-0.4-16.9c0-1.8,0.4-4.1,0-5.5C16.9,366.7,16.1,366.6,14.6,365.3"/>
	<path class="st1" d="M47.5,365.3c-0.1-0.3,0.1-0.3,0.4-0.4h6.2c2.5,3.7,4.9,7.3,7.4,11c1.2,1.8,2.3,3.7,3.5,5.5
		c0.1,0.2,0.4-0.1,0.4,0.4c0,0,0.3,1,0.4,1.1c0.2,0.4,0.9,0.7,1.2,1.1c0.6,0.9,1.1,1.9,1.5,2.9c0.7-0.4,0.4-1.4,0.4-2.2
		c0-2,0-4.4,0-7c0-3.4,0.6-7.4,0-9.5c-0.5-1.6-1.4-1.4-2.3-2.6c-0.3-0.3-0.5-0.7,0-0.7h7.3c2,0.1-1.9,2-1.9,2.9V398
		c-0.8,0.1-1.2-1-1.5-1.5c-0.8-1.2-1.4-2.3-2.3-3.7c-0.2-0.3-0.6-0.5-0.8-0.7c-0.1-0.1,0.1-0.6,0-0.7c-0.1,0-0.4,0.1-0.4,0
		c-0.2-0.3-0.2-0.7-0.4-1.1c-0.2-0.3-0.6-0.5-0.8-0.7c-0.2-0.3-0.2-0.8-0.4-1.1c-0.1-0.2-0.7-0.2-0.8-0.4c-0.3-0.4-0.2-0.8-0.4-1.1
		c-0.3-0.6-0.7-1-1.2-1.8c-0.1-0.2-0.4,0-0.4-0.4c0-0.3-0.6-0.8-0.8-1.1c-0.4-0.7-0.9-1.6-1.5-2.6c-0.1-0.2-0.7-0.5-0.8-0.7
		c-0.2-0.4-0.1-0.7-0.4-1.1c-0.2-0.3-0.6-0.5-0.8-0.7c-0.4-0.5-1-1.7-1.5-2.6c-0.2-0.3-0.6-0.5-0.8-0.7c-0.1-0.1,0.1-0.6,0-0.7
		c-0.4-0.3-0.5-0.7-0.8-1.1c-0.2-0.2-0.6-0.5-0.8-0.7c-0.3-0.6-0.7-1.2-0.8-1.8c-0.7,0.5-0.4,1.7-0.4,2.6c-0.1,4,0,9.3,0,14
		c0,2.1-0.4,4.3,0,5.5c0.4,1.6,1.4,1.4,2.3,2.6c0.2,0.3,0.5,0.7,0,0.7h-7.3c-1,0-0.5-0.3-0.4-0.7c0.9-0.6,1.7-1.3,2.3-2.2v-18.7
		c0-2.3,0.4-4.9,0-6.2C49.8,366.9,48.5,366,47.5,365.3"/>
	<path class="st1" d="M95.9,365.3c-0.1-0.3,0.1-0.3,0.4-0.4h8.1c2,0.1-1.6,1.7-1.5,2.6c2.1,6.7,4.4,13.2,6.2,20.2
		c1.3,0,0.9-1.5,1.2-2.2c0-0.1,0.4,0,0.4-0.4c0-0.1,0-0.3,0-0.4c0.2-0.4,0.1-0.8,0.4-1.8c0-0.1,0.4,0,0.4-0.4c0-0.1,0-0.3,0-0.4
		c0.1-0.4,0.2-0.6,0.4-1.1c0.1-0.3,0.2-0.9,0.4-1.5c0.1-0.3,0.3-0.6,0.4-1.1c0.3-1.2,1.4-3.9,1.9-5.5c0.3-0.9,0.5-1.7,0.8-2.6
		c0.3-0.9,0.8-2,0.8-2.2c-0.2-1.9-1-1.4-1.9-2.6c-0.2-0.3-0.5-0.7,0-0.7h7c1.4,0-0.2,1.2-0.4,1.5c-0.6,0.7-1.3,0.9-1.5,1.5
		c-0.6,1-0.7,2.5-1.2,4c-0.2,0.5-0.6,1.2-0.8,1.8c-0.3,0.8-0.6,1.6-0.8,2.2c-0.2,0.9-0.9,2.6-1.2,3.7c-0.2,0.7-0.4,1.4-0.8,2.2
		c-0.1,0.1,0.1,0.7,0,0.7c0,0-0.4,0-0.4,0c-0.2,0.6-0.2,1.5-0.4,2.2c0,0-0.4,1.4-0.4,1.5c-0.4,0.3-0.9,2.1-1.2,2.9
		c0,0.1,0.1,0.7,0,0.7c-0.4,0.3-0.4,1.1-0.8,2.2c0,0.1-0.4,0-0.4,0.4c0,0.5-0.2,0.7-0.4,1.1c-0.5,1-0.3,3.1-2.3,2.6
		c-1.4,0.7-0.3-1.1-0.8-1.5c-0.7-0.6-1.5-3.7-1.9-5.1c-0.7-2.3-1.5-4.6-2.3-7c-0.2-0.7-0.1-1.4-0.4-2.2c-0.1-0.1-0.4,0-0.4-0.4
		c0-0.6-0.2-0.7-0.4-1.1c-0.3-0.8-0.4-1.7-0.8-2.6c-0.1-0.1,0.1-0.6,0-0.7c-0.3-0.2-0.5-0.8-0.8-1.8c-0.3-1.1-0.8-2.2-1.2-3.3
		c-0.2-0.6-0.2-1.5-0.4-1.8C98.3,367.3,97.1,366.1,95.9,365.3"/>
	<path class="st1" d="M127.2,365.3c-0.1-0.3,0.1-0.3,0.4-0.4h19.3v4.8c0,0.9-0.3,0.4-0.8,0.4c-0.7-1-1.6-1.9-2.7-2.6h-9.3
		c-0.7,0.6-0.4,1.8-0.4,2.6c0,2.1,0,5.2,0,7.7c0.3,0.8,2.2,0.1,3.1,0.4c1.4-0.1,2.5,0.2,3.5,0c1-0.2,1.4-0.6,1.9-1.1
		c0.3-0.3,0.6-1.5,1.2-0.7v6.2c-0.1,1.9-2.1-1.8-3.1-1.8h-6.6v12.8c2.9-0.5,6.8,0.7,9.3,0c1.7-0.4,2.2-1.6,3.1-2.6
		c0.3-0.2,0.7-0.4,0.8,0v5.1H128c-1,0-0.5-0.3-0.4-0.7c0.9-0.6,1.7-1.3,2.3-2.2v-18.7c0-2.3,0.4-4.9,0-6.2
		C129.5,366.9,128.1,366,127.2,365.3"/>
	<path class="st1" d="M153.5,365.3c-0.1-0.3,0.1-0.3,0.4-0.4c4.2,0.3,8.4-0.5,12,0c0.7,0.1,2.2,0.4,2.7,0.7c0.3,0.2,0.9,0.4,1.5,0.7
		c0.4,0.2,0.5,0.5,0.8,0.7c0.2,0.2,1,0.2,1.2,0.4c0.1,0.1-0.1,0.6,0,0.7c0.1,0.1,0.7,0.2,0.8,0.4c0.4,0.5,1.4,2.3,1.5,3.3
		c0.5,3.9-1.8,7.4-5.8,8.8c1.2,2.6,2.8,5.2,4.3,7.7c1.4,2.5,2.5,5.4,5,7c0.2,0.3,0.5,0.7,0,0.7h-5.4c-2.5-4.8-5.3-9.4-7.7-14.3h-4.6
		c0.6,3.3-0.8,8.5,0,11.4c0.3,1,0.7,1.3,1.2,1.8c0.2,0.2,1.5,0.5,0.8,1.1h-7.7c-1,0-0.5-0.3-0.4-0.7c0.9-0.6,1.7-1.3,2.3-2.2v-18.7
		c0-2.3,0.4-4.9,0-6.2C155.8,366.9,154.4,366,153.5,365.3 M160.1,379.3c2.2,0.1,4.2,0,5.4-0.4c1.6-0.4,1.8-0.9,2.7-1.8
		c0.3-0.3,0.5-0.4,0.8-0.7c0.7-0.8,0.7-1,0.8-2.2c0-0.2,0.4-0.4,0.4-0.4c0-0.6-0.3-0.7-0.4-1.1c-0.1-0.7,0.1-1.1-0.4-1.5
		c-0.1-0.1,0.1-0.6,0-0.7c-0.1-0.2-0.6-0.5-0.8-0.7c-0.8-1.1-1.4-1.8-2.3-1.8c-0.4,0-0.3-0.3-0.4-0.4c-1.2-0.3-4.8,0.2-5.8,0V379.3z
		"/>
	<path class="st1" d="M223.1,365h23.6v5.5c-1.9-0.4-2.3-2.2-3.9-2.9h-6.2v19.1c0,2.3-0.4,4.9,0,6.2c0.3,1.1,0.9,1.1,1.5,1.8
		c0.2,0.2,1.5,1.3,0.8,1.5h-7.7c-2-0.1,1.6-1.7,1.5-2.6v-25.7c-0.2-0.8-1.9-0.1-2.7-0.4c-1.2,0.1-2-0.1-2.7,0
		c-2,0.4-2.3,2.5-4.3,2.9V365z"/>
	<path class="st1" d="M251.3,365.3c-0.1-0.3,0.1-0.3,0.4-0.4h8.1c2,0.1-1.6,1.7-1.5,2.6c2,3.5,4.2,6.8,5.8,10.6
		c1.5,0.1,1.4-1.7,1.9-2.6c0.1-0.2,0.4,0,0.4-0.4c0-0.5,0.6-0.5,0.8-0.7c0.3-0.5,0.1-1,0.4-1.5c0.1-0.2,0.4,0.1,0.4-0.4
		c0-0.5,0.6-0.5,0.8-0.7c0.1-0.1-0.1-0.6,0-0.7c0,0,0.4,0,0.4,0c0.1-0.1-0.1-0.6,0-0.7c0,0,0.4,0,0.4,0c0.1-0.1-0.1-0.6,0-0.7
		c0,0,0.4,0,0.4,0c0.1-0.1-0.1-0.6,0-0.7c0.2-0.1,0.8-0.6,1.2-1.1c0-0.7-0.6-1.2-1.2-1.8c-0.3-0.4-1.6-0.7-0.8-1.1h7
		c0.7-0.1,0.8,0.3,0.4,0.4c-0.9,1.1-1.9,1.9-2.7,3.3c-0.7,1.2-1.8,2.8-2.7,4.4c-0.5,1-1,1.6-1.5,2.6c-0.2,0.3-0.2,0.7-0.4,1.1
		c-0.2,0.3-0.6,0.5-0.8,0.7c-0.7,0.9-1.4,2.8-2.3,4c0.6,3.4-0.8,8.7,0,11.8c0.3,0.9,0.6,1.3,1.2,1.8c0.2,0.2,1.5,0.5,0.8,1.1h-7.7
		c-2-0.1,1.9-2,1.9-2.9c-0.5-4.2,0.7-7.7,0-11c-0.2-0.9-1.2-2.5-1.9-3.7c-1.3-2.2-2.5-4.3-3.9-6.6c-0.2-0.4-0.6-0.5-0.8-0.7
		c-0.1-0.1,0.1-0.6,0-0.7c-0.2-0.2-0.8-1.3-1.2-1.8C253.6,367.4,252.7,366.1,251.3,365.3"/>
	<path class="st1" d="M332.6,366.4c0.2,1.4-1,1.5-1.2,2.6c-2.1,0-2.3-1.7-4.3-1.8c-1.3-0.1-1.7,1.3-2.3,2.2
		c-0.2,0.4-0.2,0.6-0.4,1.1c-0.1,0.3-0.3,0.2-0.4,0.4c-0.6,1.6-0.5,3.9-1.2,5.5c0.9,1,4.1-0.2,5,0.7c-0.4,1.8-2.7,1.8-5,1.8
		c-1.1,0.4-0.4,1.4-0.8,2.6c-0.5,1.4-1.2,4.9-1.5,7c-0.2,1-0.1,2.2-0.4,3.3c0,0.1-0.4,0.1-0.4,0.4c0,0.1,0.1,1,0,1.1
		c-0.4,0.3,0,1.1-0.4,1.5c0,0-0.4,0-0.4,0c-0.1,0.3,0.2,1.3,0,1.5c-0.8,0.8-1.1,4-2.3,5.1c0,0-0.4,0.4-0.4,0.4
		c-0.3,0.4-0.1,1-0.4,1.5c-0.5,0.6-1.9,1.5-2.7,2.2c-0.4,0.4-0.8,1.2-1.2,1.5c-0.1,0.1-0.7-0.1-0.8,0c0,0,0,0.3,0,0.4
		c-0.1,0.1-0.7-0.1-0.8,0c-0.5,0.6-3.5,0.6-4.3-0.4c-0.8-1-0.6-2,0.8-3.3c1.2-0.2,3.5,2.3,5.4,0.7c0.2-0.2,0.4,0,0.4-0.4
		c0-0.5,0.6-0.5,0.8-0.7c0.1-0.3,0-1.9,0.4-2.2c0.4-0.3,0-1.1,0.4-1.5c0,0,0.4,0,0.4,0c0.2-0.8,0-1.8,0.4-2.9
		c0.1-0.4,0.6-2.6,0.8-3.7c1-5.4,2-10.2,2.3-13.6c-0.4-0.8-2.4-0.1-3.5-0.4c-0.1-2.2,2-2.3,4.3-2.2c0.2-1.7,1-4.1,1.9-5.9
		c0.2-0.4,0.8-0.7,0.8-1.1c0-0.5,1.2-1.2,1.9-1.8c1.4-1.4,2.4-2.9,5.4-2.9C330.3,365,331.8,364.9,332.6,366.4"/>
	<path class="st1" d="M341.1,365.3c-0.1-0.3,0.1-0.3,0.4-0.4h8.1c2,0.1-1.6,1.7-1.5,2.6c2.3,6.7,4.2,13.9,6.6,20.6
		c1-1.2,1-3.1,1.5-4.8c0-0.1,0.4,0,0.4-0.4c0-0.1,0-0.3,0-0.4c0.1-0.4,0.2-0.6,0.4-1.1c0.1-0.3,0.4-0.3,0.4-0.4
		c0.2-0.8,0.1-1.7,0.4-2.6c0-0.1,0.4,0,0.4-0.4c0-0.1,0-0.3,0-0.4c0.1-0.4,0.2-0.6,0.4-1.1c0.1-0.5,0.9-2.4,1.2-3.3
		c0.2-0.9,0.4-1.6,0.8-2.9c0.5-1.8-0.2-3.4-1.9-4.8c-0.3-0.1-0.4-0.4-0.8-0.4c-0.1-0.3,0.1-0.3,0.4-0.4h8.1c2,0.1-1.6,1.7-1.5,2.6
		c2,6.9,4.4,13.4,6.2,20.6c1.3-1,1.4-3,1.9-4.8c0.2-0.5,0.6-1.2,0.8-1.8c0.3-1,0.4-2,0.8-3.3c0-0.1,0.4,0,0.4-0.4c0-0.1,0-0.3,0-0.4
		c0.1-0.4,0.2-0.6,0.4-1.1c0.1-0.3,0.2-0.9,0.4-1.5c0.1-0.3,0.3-0.6,0.4-1.1c0.2-0.9,1.1-3.1,1.5-4.4c0.1-0.3,0.4-0.8,0.4-1.1
		c-0.2-1.9-1-1.4-1.9-2.6c-0.2-0.3-0.5-0.7,0-0.7h7c1.8,0-1.6,2.2-1.9,2.6c-1,4.3-2.8,8.9-4.3,13.2c-0.5,1.5-0.9,3.2-1.5,4.8
		c-0.1,0.1,0.1,0.7,0,0.7c-0.4,0.3-0.9,2-1.2,2.9c0,0.1,0.1,0.7,0,0.7c-0.4,0.3-0.4,1-0.8,2.2c0,0.1-0.4,0-0.4,0.4
		c0,0.5-0.2,0.7-0.4,1.1c-0.4,1-0.3,3.1-2.3,2.6c-1.3,0-0.8-1.5-1.2-2.6c0-0.1-0.4,0-0.4-0.4c0-0.1,0-0.3,0-0.4
		c-0.4-1-1-3.1-1.5-4.8c-0.2-0.5-0.6-1.2-0.8-1.8c-0.9-3.5-2.6-7.8-3.5-11.7c-0.9,0.1-0.9,1.5-1.2,2.2c-0.2,0.5-0.8,2.1-1.2,3.3
		c-0.3,1-0.5,2-0.8,2.9c0,0.1-0.4,0-0.4,0.4c0,0.1,0,0.3,0,0.4c-0.2,0.4-0.2,0.8-0.4,1.5c-0.1,0.3-0.4,0.3-0.4,0.4
		c-0.3,1-0.4,2.2-0.8,3.3c0,0.1-0.4,0-0.4,0.4c0,0.1,0,0.3,0,0.4c-0.4,1-0.8,3.1-1.5,4.8c-0.3,0.7-0.4,2.3-1.9,1.8
		c-1.3,0.2-1.2-1.4-1.5-2.2c-0.1-0.1,0.1-0.7,0-0.7c-0.4-0.3-0.4-1.1-0.8-2.2c0-0.1-0.4,0-0.4-0.4c0-0.1,0.1-1,0-1.1
		c-0.4-0.3-0.4-1.1-0.8-2.2c0-0.1-0.4,0-0.4-0.4c0-0.6-0.2-0.7-0.4-1.1c-0.2-0.7-0.2-1.6-0.4-2.2c0-0.1-0.4,0-0.4-0.4
		c0-0.6-0.2-0.6-0.4-1.1c-1.3-3.9-2.3-8.1-3.9-12.1c0-0.1,0.1-0.7,0-0.7c-0.3-0.2-0.4-1.2-0.8-1.8
		C343.2,366.6,342.1,365.9,341.1,365.3"/>
	<path class="st1" d="M397.9,365c0.4,1.3,1.2,2.8,1.5,4c0.2,0.7,0.4,1.4,0.8,2.2c0.1,0.1-0.1,0.7,0,0.7c0.5,0.4,1.2,2.7,1.5,3.7
		c0.2,0.6,0.6,1.2,0.8,1.8c0.3,0.8,0.6,1.5,0.8,2.2c0.2,0.7,0.4,1.4,0.8,2.2c0.1,0.1-0.1,0.7,0,0.7c0.5,0.4,1.2,2.7,1.5,3.7
		c0.5,1.5,1,3,1.5,4.4c0.1,0.1-0.1,0.7,0,0.7c0.3,0.3,0.4,1.1,0.8,1.8c0.6,1,1.6,1.3,2.3,2.2c0.3,0.3,0.5,0.7,0,0.7h-8.1
		c-2-0.1,1.6-1.7,1.5-2.6c-0.5-2.2-1.6-3.9-1.9-6.2h-10.4c-1.2,0.4-0.8,2.1-1.5,2.9c-0.3,1-0.5,2.2-1.2,2.9c0,0.7,0.6,1.2,1.2,1.8
		c0.3,0.4,1.6,0.7,0.8,1.1h-7.7c0.6-1.1,1.9-1.4,2.7-2.2c3.3-9.8,6.9-19.4,10.4-29H397.9z M395.6,374.1c0,0.1,0,0.3,0,0.4
		c0,0.4-0.3,0.2-0.4,0.4c-0.5,1.2-0.9,2.7-1.2,3.3c0,0.1,0,0.3,0,0.4c0,0.4-0.3,0.2-0.4,0.4c-0.4,1-0.5,2-0.8,2.9
		c-0.3,1-0.7,2-1.2,2.9h8.9c-1-4.2-2.7-7.7-3.9-11.8c-0.1-0.3-0.3-0.4-0.8-0.4C396.1,373.4,395.8,373.8,395.6,374.1"/>
	<path class="st1" d="M489.2,365.3c-0.1-0.3,0.1-0.3,0.4-0.4h6.2c2.5,3.7,4.9,7.3,7.4,11c1.2,1.8,2.3,3.7,3.5,5.5
		c0.1,0.2,0.4-0.1,0.4,0.4c0,0,0.3,1,0.4,1.1c0.2,0.4,0.9,0.7,1.2,1.1c0.6,0.9,1.1,1.9,1.5,2.9c0.7-0.4,0.4-1.4,0.4-2.2
		c0-2,0-4.4,0-7c0-3.4,0.6-7.4,0-9.5c-0.5-1.6-1.4-1.4-2.3-2.6c-0.2-0.3-0.5-0.7,0-0.7h7.3c2,0.1-1.9,2-1.9,2.9V398
		c-0.8,0.1-1.2-1-1.5-1.5c-0.8-1.2-1.4-2.3-2.3-3.7c-0.2-0.3-0.6-0.5-0.8-0.7c-0.1-0.1,0.1-0.6,0-0.7c-0.1,0-0.4,0.1-0.4,0
		c-0.2-0.3-0.2-0.7-0.4-1.1c-0.1-0.3-0.6-0.5-0.8-0.7c-0.2-0.3-0.2-0.8-0.4-1.1c-0.1-0.2-0.7-0.2-0.8-0.4c-0.3-0.4-0.2-0.8-0.4-1.1
		c-0.3-0.6-0.7-1-1.2-1.8c-0.1-0.2-0.4,0-0.4-0.4c0-0.3-0.6-0.8-0.8-1.1c-0.4-0.7-0.9-1.6-1.5-2.6c-0.1-0.2-0.7-0.5-0.8-0.7
		c-0.2-0.4-0.1-0.7-0.4-1.1c-0.2-0.3-0.6-0.5-0.8-0.7c-0.4-0.5-1-1.7-1.5-2.6c-0.2-0.3-0.6-0.5-0.8-0.7c-0.1-0.1,0.1-0.6,0-0.7
		c-0.4-0.3-0.5-0.7-0.8-1.1c-0.2-0.2-0.6-0.5-0.8-0.7c-0.4-0.6-0.7-1.2-0.8-1.8c-0.7,0.5-0.4,1.7-0.4,2.6c-0.1,4,0,9.3,0,14
		c0,2.1-0.4,4.3,0,5.5c0.4,1.6,1.4,1.4,2.3,2.6c0.2,0.3,0.5,0.7,0,0.7H490c-1,0-0.5-0.3-0.4-0.7c0.9-0.6,1.7-1.3,2.3-2.2v-18.7
		c0-2.3,0.4-4.9,0-6.2C491.5,366.9,490.1,366,489.2,365.3"/>
	<path class="st1" d="M551.5,365H575v5.5c-1.9-0.4-2.3-2.2-3.9-2.9H565v19.1c0,2.3-0.4,4.9,0,6.2c0.3,1.1,0.9,1.1,1.6,1.8
		c0.2,0.2,1.5,1.3,0.8,1.5h-7.7c-2-0.1,1.6-1.7,1.5-2.6v-25.7c-0.2-0.8-1.9-0.1-2.7-0.4c-1.2,0.1-2-0.1-2.7,0
		c-2,0.4-2.3,2.5-4.3,2.9V365z"/>
	<path class="st1" d="M611.4,365.3c-0.1-0.3,0.1-0.3,0.4-0.4h6.2c2.5,3.7,4.9,7.3,7.4,11c1.2,1.8,2.3,3.7,3.5,5.5
		c0.1,0.2,0.4-0.1,0.4,0.4c0,0,0.3,1,0.4,1.1c0.2,0.4,0.9,0.7,1.2,1.1c0.6,0.9,1.1,1.9,1.6,2.9c0.7-0.4,0.4-1.4,0.4-2.2
		c0-2,0-4.4,0-7c0-3.4,0.6-7.4,0-9.5c-0.5-1.6-1.4-1.4-2.3-2.6c-0.2-0.3-0.5-0.7,0-0.7h7.4c2,0.1-1.9,2-1.9,2.9V398
		c-0.8,0.1-1.2-1-1.5-1.5c-0.8-1.2-1.4-2.3-2.3-3.7c-0.2-0.3-0.6-0.5-0.8-0.7c-0.1-0.1,0.1-0.6,0-0.7c-0.1,0-0.4,0.1-0.4,0
		c-0.2-0.3-0.2-0.7-0.4-1.1c-0.1-0.3-0.6-0.5-0.8-0.7c-0.2-0.3-0.2-0.8-0.4-1.1c-0.1-0.2-0.7-0.2-0.8-0.4c-0.3-0.4-0.2-0.8-0.4-1.1
		c-0.3-0.6-0.7-1-1.2-1.8c-0.1-0.2-0.4,0-0.4-0.4c0-0.3-0.6-0.8-0.8-1.1c-0.4-0.7-0.9-1.6-1.5-2.6c-0.2-0.2-0.7-0.5-0.8-0.7
		c-0.2-0.4-0.1-0.7-0.4-1.1c-0.2-0.3-0.6-0.5-0.8-0.7c-0.4-0.5-1-1.7-1.5-2.6c-0.2-0.3-0.6-0.5-0.8-0.7c-0.1-0.1,0.1-0.6,0-0.7
		c-0.4-0.3-0.5-0.7-0.8-1.1c-0.2-0.2-0.6-0.5-0.8-0.7c-0.4-0.6-0.7-1.2-0.8-1.8c-0.7,0.5-0.4,1.7-0.4,2.6c-0.1,4,0,9.3,0,14
		c0,2.1-0.4,4.3,0,5.5c0.5,1.6,1.4,1.4,2.3,2.6c0.2,0.3,0.5,0.7,0,0.7h-7.3c-1,0-0.5-0.3-0.4-0.7c0.9-0.6,1.7-1.3,2.3-2.2v-18.7
		c0-2.3,0.4-4.9,0-6.2C613.7,366.9,612.3,366,611.4,365.3"/>
	<path class="st1" d="M300.8,376.7c0,0,0.1-0.3,0.4-0.4c1.3-0.2,3.6,0,4.6,0.4c0.5,0.2,1.5,0.5,1.9,1.1c0.3,0.3,0.1,0.7,0.4,1.1
		c0.2,0.3,0.6,0.3,0.8,0.7c0.5,0.9,0.8,4.4,0.4,6.6c0,0-0.4,0.1-0.4,0.4c0,0.8-0.2,0.9-0.4,1.5c-0.1,0.5-0.1,0.7-0.4,1.1
		c-0.2,0.3-0.4,0.9-0.8,1.5c-0.8,1.4-1.8,2.3-3.1,3.3c-2.3,1.8-6.3,3.8-10.1,2.2c-0.2-0.1,0-0.3-0.4-0.4c-0.1,0-0.3,0-0.4,0
		c-2.3-1.8-2.9-6.1-2.3-9.2c0,0,0.4-0.1,0.4-0.4c0-0.1-0.1-1,0-1.1c0.2-0.2,1.5-2.4,1.5-2.9c0-0.5,0.6-0.5,0.8-0.7
		c0.1-0.2-0.1-0.6,0-0.7c0.2-0.2,2.2-2.2,2.7-2.2c0.3,0,0.9-0.6,1.2-0.7C298.5,377.4,299.4,377,300.8,376.7 M298.9,394.7
		c1.8,0.1,3.3-1.5,4.3-2.9c1.3-2.1,2.6-7.2,1.9-9.2c-0.4-1.2,0-2.4-0.4-2.9c0.1,0.1-0.8-0.9-1.2-1.1c-0.1-0.1-0.7,0.1-0.8,0
		c-0.7-0.8-2.4-0.2-2.7,0c-0.4,0.2-0.8,0.1-1.2,0.4c-0.3,0.2-1.2,1.6-1.9,2.9c-1,1.9-1.4,3.6-1.5,5.9c-0.1,1.8-0.2,1.8,0,2.6
		c0.1,0.2,0,0.5,0,0.7c0.3,1.6,0.8,2.4,1.5,3.3C298.1,394.2,298.1,394.7,298.9,394.7"/>
</g>
</svg>
