<?xml version="1.0" encoding="UTF-8" standalone="no" ?>
<!DOCTYPE svg PUBLIC "-//W3C//DTD SVG 1.1//EN" "http://www.w3.org/Graphics/SVG/1.1/DTD/svg11.dtd">
<svg xmlns="http://www.w3.org/2000/svg" xmlns:xlink="http://www.w3.org/1999/xlink" version="1.1" width="1080" height="1080" viewBox="0 0 1080 1080" xml:space="preserve">
<desc>Created with Fabric.js 5.2.4</desc>
<defs>
</defs>
<rect x="0" y="0" width="100%" height="100%" fill="transparent"></rect>
<g transform="matrix(1 0 0 1 540 540)" id="333a7e1a-3f1f-4dd5-a931-f469499674a7"  >
</g>
<g transform="matrix(1 0 0 1 540 540)" id="fe73b978-c535-454d-b85c-fadeede109cb"  >
<rect style="stroke: none; stroke-width: 1; stroke-dasharray: none; stroke-linecap: butt; stroke-dashoffset: 0; stroke-linejoin: miter; stroke-miterlimit: 4; fill: rgb(255,255,255); fill-rule: nonzero; opacity: 1; visibility: hidden;" vector-effect="non-scaling-stroke"  x="-540" y="-540" rx="0" ry="0" width="1080" height="1080" />
</g>
<g transform="matrix(1 0 0 1 540 540)"  >
<g style="" vector-effect="non-scaling-stroke"   >
		<g transform="matrix(1 0 0 1 -47.69 34.35)"  >
<path style="stroke: none; stroke-width: 1; stroke-dasharray: none; stroke-linecap: butt; stroke-dashoffset: 0; stroke-linejoin: miter; stroke-miterlimit: 4; fill: rgb(0,0,0); fill-rule: nonzero; opacity: 1;" vector-effect="non-scaling-stroke"  transform=" translate(-504.55, -505.81)" d="M 767 190.48 C 764.34 189.17999999999998 760.07 190.56 758.33 192.6 Q 749.0300000000001 203.6 739.71 214.49 C 727.32 228.96 714.86 243.36 702.58 257.91 C 700.9567610151095 257.7353231899298 699.318453609936 257.75546631376386 697.7 257.97 C 686.6236716855802 259.5096198733243 678.8894366929162 269.732416588165 680.4200000000001 280.81 C 680.5327367076093 281.5989535416746 680.6930286264869 282.3803766462031 680.9000000000001 283.15 C 672.9700000000001 292.42999999999995 665.0900000000001 301.75 657.1500000000001 311.02 C 646.8800000000001 323.02 636.5200000000001 334.95 626.3400000000001 347.02 C 620.0351950429197 346.07414223493856 613.6538845682468 348.16019966713196 609.1251973942598 352.64753795822605 C 604.5965102202728 357.13487624932014 602.4520104211447 363.4967847362538 603.3400000000001 369.81 C 603.4847014256999 370.82509179497123 603.7053199989591 371.8279034916039 604.0000000000001 372.81 C 603.7518193415041 373.52109426777406 603.3565638610997 374.1719028605088 602.8400000000001 374.72 C 596.5000000000001 382.01000000000005 590.2600000000001 389.39000000000004 584.0300000000002 396.77000000000004 C 577.5900000000001 404.40000000000003 571.2200000000003 412.08000000000004 564.7800000000002 419.71000000000004 Q 554.7800000000002 431.53000000000003 544.7800000000002 443.27000000000004 C 543.9837081822506 444.25773441016355 543.0471118577685 445.1235806525804 542.0000000000002 445.84000000000003 C 535.6016310318157 444.6387087863289 529.0161215477899 446.590028732445 524.305024464023 451.0831112267235 C 519.5939273802559 455.5761937210019 517.3329956744071 462.06192980241866 518.2300000000002 468.51000000000005 C 518.4315250574741 469.85656946307785 518.7665078086704 471.1797513303035 519.2300000000002 472.46000000000004 C 518.824468435224 473.47772886960877 518.2571576779957 474.4232467983228 517.5500000000003 475.26000000000005 C 509.5500000000003 484.81000000000006 501.4200000000003 494.21000000000004 493.33000000000027 503.6700000000001 Q 470.64000000000027 530.21 447.96000000000026 556.7700000000001 C 447.16127137484654 557.7365371385222 446.2516969904177 558.605835166445 445.2500000000003 559.3600000000001 C 443.4379063333272 559.120087293751 441.6020936666734 559.120087293751 439.7900000000003 559.3600000000001 C 434.2533665667426 560.1219816924499 429.2462928828139 563.0524434115131 425.8705374200962 567.5065652025991 C 422.4947819573784 571.960686993685 421.02694141287736 577.5735148815777 421.7900000000003 583.1100000000001 C 421.9548843305418 584.2177883991089 422.20563979285424 585.3110822147914 422.5400000000003 586.3800000000001 C 416.7400000000003 593.19 411.01000000000033 600.0400000000001 405.20000000000033 606.8300000000002 C 399.74000000000035 613.2200000000001 394.20000000000033 619.5000000000001 388.7200000000003 625.9100000000002 C 382.3400000000003 633.4400000000002 376.13000000000034 641.1100000000002 369.7200000000003 648.6100000000002 C 368.83903342156236 649.7155441099371 367.7974847926882 650.6829371730014 366.63000000000034 651.4800000000002 C 355.18455999479517 648.4904321750704 343.02506407836677 652.0905173961422 335.05207047911824 660.8293380121606 C 327.0790768798697 669.568158628179 324.60617441442434 682.0059521598715 328.63000000000034 693.1300000000002 C 328.7258050408605 696.1789104622894 327.45733192640733 699.1117962760541 325.17000000000036 701.1300000000002 C 324.4645951740773 701.7567690862439 323.7967690862441 702.4245951740772 323.17000000000036 703.1300000000002 Q 312.05 716.27 301 729.44 C 298.62 732.2700000000001 295.9 734.44 291.94 734.35 C 290.548791840031 734.3211597881024 289.18055489736065 734.7076083902306 288.01 735.46 C 283.46999999999997 738.46 278.74 741.27 275.53999999999996 745.86 C 272.3399999999999 750.45 269.22999999999996 755.1800000000001 269.04999999999995 760.9300000000001 C 268.80999999999995 768.9300000000001 263.59 775.32 255.72999999999996 776.7 C 254.68374375467 776.8158240412554 253.66723633761782 777.120776266371 252.72999999999996 777.6 C 246.78999999999996 781.38 241.03999999999996 785.2900000000001 237.72999999999996 791.95 C 235.88999999999996 795.6600000000001 235.72999999999996 799.26 238.49999999999997 802.47 C 244.616527269847 809.8625253119094 252.08232830830232 816.0252047145616 260.5 820.63 C 263.55 822.26 266.25 821.83 269.1 819.97 C 273.3514186695534 817.2042974940437 276.7183980966548 813.2749977914881 278.8 808.65 C 280.33 805.29 282.8 801.87 282.15000000000003 797.9499999999999 C 281.43 793.31 284.15000000000003 790.5999999999999 286.63000000000005 787.4399999999999 C 288.5484959104915 784.9307441254113 291.47513148967744 783.3942604463386 294.63000000000005 783.2399999999999 C 298.70000000000005 782.8399999999999 301.63000000000005 780.0399999999998 304.7900000000001 777.8399999999999 C 308.6009294945302 775.1772023950344 311.6624474853273 771.5784551505091 313.68000000000006 767.3899999999999 C 315.83000000000004 762.8299999999999 318.32000000000005 758.3899999999999 317.68000000000006 753.0399999999998 C 317.51000000000005 751.6699999999998 317.37000000000006 750.3099999999998 318.39000000000004 749.1099999999999 C 321.45000000000005 745.5099999999999 324.47 741.8599999999999 327.51000000000005 738.2399999999999 C 333.87000000000006 730.6899999999999 340.34000000000003 723.2399999999999 346.51000000000005 715.5099999999999 C 347.39280705754 714.2108108502018 348.76326967801 713.3236166274766 350.31000000000006 713.0499999999998 C 362.5826122511577 716.3559474916524 375.64605609686623 712.0512289999671 383.54909529583574 702.0969197971957 C 391.4521344948053 692.1426105944244 392.6826251993534 678.4433383864325 386.68000000000006 667.2399999999998 L 386.7900000000001 667.0799999999998 C 391.43000000000006 661.4799999999998 395.9700000000001 655.7999999999998 400.6000000000001 650.1999999999998 C 413.3400000000001 634.7999999999998 426.18000000000006 619.4699999999998 438.8300000000001 603.9899999999998 C 439.66801830323567 602.9317277696962 440.6628337304753 602.0077297118534 441.7800000000001 601.2499999999998 C 443.05886498093315 601.3157665981619 444.34107625080213 601.2622016364963 445.61000000000007 601.0899999999998 C 451.14780155982885 600.3305378674805 456.1565201767959 597.4007103765673 459.5327675115283 592.9459395876843 C 462.9090148462606 588.4911687988014 464.37580011390247 582.876928664189 463.61000000000007 577.3399999999998 C 463.4494667880561 576.5494652891596 463.245829513373 575.7682993502114 463 575 C 463.3711514960141 574.161985534279 463.89315523239907 573.3993177376126 464.54 572.75 C 467.03000000000003 570.17 469.14000000000004 567.24 471.43 564.47 Q 482.29 551.2900000000001 493.17 538.12 C 499.55 530.43 506.02000000000004 522.82 512.4 515.12 C 519.65 506.38 526.75 497.51 534.12 488.88 C 534.943685788484 487.7179934091484 535.9579934091483 486.70368578848405 537.12 485.88 C 540.7327932360063 486.0880896467203 544.3351113665034 485.32134503984554 547.55 483.65999999999997 C 549.3212022536675 482.83567752852485 550.9566014132246 481.74653540783015 552.4 480.42999999999995 C 555.9830556805094 477.37534205592624 558.1526474394572 472.9819187440572 558.4 468.28 C 558.640060591038 466.4913522230415 558.640060591038 464.6786477769585 558.4 462.89 C 558.4 462.68 558.3199999999999 462.49 558.28 462.28 C 558.5346119031042 460.36106978111417 559.3484332534944 458.55953362939556 560.62 457.09999999999997 C 569.28 446.41999999999996 578.13 435.9 586.92 425.33 Q 601.65 407.59999999999997 616.38 389.88 C 617.2142889097361 388.75828902436376 618.1553571694931 387.720099841002 619.1899999999999 386.78 C 625.6517211253097 388.20514930353664 632.4016588258228 386.3735376403038 637.2566697314356 381.87756616074284 C 642.1116806370485 377.38159468118187 644.4554766502049 370.7919755347964 643.53 364.23999999999995 C 643.2640714806887 362.3957282510644 642.7493862375803 360.5960118781034 642 358.88999999999993 Q 666.6 329.24999999999994 691.07 299.48999999999995 C 691.8100000000001 298.59999999999997 692.5300000000001 297.71999999999997 693.2600000000001 296.86999999999995 C 701.3773566674121 300.0243150567473 710.6024316160804 297.62976971312753 716.1608414226465 290.92564686479983 C 721.7192512292127 284.22152401647213 722.3634353209073 274.7125344767152 717.7600000000001 267.31999999999994 L 718.32 266.6599999999999 C 724.82 259.06999999999994 731.11 251.2999999999999 737.5 243.6599999999999 Q 745.55 233.9499999999999 753.65 224.2899999999999 C 758.91 217.99999999999991 764.25 211.77999999999992 769.43 205.4299999999999 C 771.43 202.9199999999999 773.3399999999999 200.3299999999999 772.54 196.5799999999999 C 771.78 193.33 769.52 191.68 767 190.48 Z" stroke-linecap="round" />
</g>
		<g transform="matrix(1 0 0 1 167.78 -324.38)"  >
<polygon style="stroke: none; stroke-width: 1; stroke-dasharray: none; stroke-linecap: butt; stroke-dashoffset: 0; stroke-linejoin: miter; stroke-miterlimit: 4; fill: rgb(242,101,34); fill-rule: nonzero; opacity: 1;" vector-effect="non-scaling-stroke"  points="-15.91,-25.81 0.53,-16.67 17.38,-25.03 13.77,-6.57 26.93,6.87 8.26,9.14 -0.46,25.81 -8.39,8.75 -26.94,5.62 -13.17,-7.2 -15.91,-25.81 " />
</g>
		<g transform="matrix(1 0 0 1 291.44 -271.17)"  >
<polygon style="stroke: none; stroke-width: 1; stroke-dasharray: none; stroke-linecap: butt; stroke-dashoffset: 0; stroke-linejoin: miter; stroke-miterlimit: 4; fill: rgb(242,101,34); fill-rule: nonzero; opacity: 1;" vector-effect="non-scaling-stroke"  points="-10.74,-24.37 3.15,-14.15 19.45,-19.79 14.02,-3.42 24.42,10.33 7.17,10.22 -2.69,24.37 -7.92,7.93 -24.42,2.92 -10.41,-7.13 -10.74,-24.37 " />
</g>
		<g transform="matrix(1 0 0 1 217.3 -161.64)"  >
<polygon style="stroke: none; stroke-width: 1; stroke-dasharray: none; stroke-linecap: butt; stroke-dashoffset: 0; stroke-linejoin: miter; stroke-miterlimit: 4; fill: rgb(242,101,34); fill-rule: nonzero; opacity: 1;" vector-effect="non-scaling-stroke"  points="-9.94,-22.55 2.91,-13.09 17.98,-18.31 12.96,-3.17 22.59,9.56 6.63,9.46 -2.5,22.55 -7.33,7.34 -22.6,2.7 -9.63,-6.59 -9.94,-22.55 " />
</g>
		<g transform="matrix(1 0 0 1 58.8 -179.63)"  >
<polygon style="stroke: none; stroke-width: 1; stroke-dasharray: none; stroke-linecap: butt; stroke-dashoffset: 0; stroke-linejoin: miter; stroke-miterlimit: 4; fill: rgb(242,101,34); fill-rule: nonzero; opacity: 1;" vector-effect="non-scaling-stroke"  points="-5.14,-11.66 1.51,-6.77 9.3,-9.46 6.7,-1.64 11.68,4.94 3.43,4.89 -1.29,11.66 -3.79,3.8 -11.68,1.4 -4.98,-3.41 -5.14,-11.66 " />
</g>
</g>
</g>
</svg>