<!DOCTYPE svg PUBLIC "-//W3C//DTD SVG 1.1//EN" "http://www.w3.org/Graphics/SVG/1.1/DTD/svg11.dtd">
<!-- Uploaded to: SVG Repo, www.svgrepo.com, Transformed by: SVG Repo Mixer Tools -->
<svg width="800px" height="800px" viewBox="0 0 64 64" version="1.1" xmlns="http://www.w3.org/2000/svg" xmlns:xlink="http://www.w3.org/1999/xlink" fill="#ffffff" transform="rotate(270)">
<g id="SVGRepo_bgCarrier" stroke-width="0"/>
<g id="SVGRepo_tracerCarrier" stroke-linecap="round" stroke-linejoin="round"/>
<g id="SVGRepo_iconCarrier"> <title>des-wand-2</title> <desc>Created with Sketch.</desc> <defs> </defs> <g id="General" stroke="none" stroke-width="1" fill="none" fill-rule="evenodd"> <g id="SLICES-64px" transform="translate(-810.000000, -400.000000)"> </g> <g id="ICONS" transform="translate(-805.000000, -395.000000)"> <g id="des-wand-2" transform="translate(810.000000, 402.000000)"> <polygon id="Fill-573" fill="#7f4848" points="0 48 4 52 34 22 30 18"> </polygon> <polygon id="Fill-574" fill="#292929" points="38 10 30 18 34 22 42 14"> </polygon> <polygon id="Fill-575" fill-opacity="0.25" fill="#622727" points="40 12 34 18 2 50 4 52 36 20 42 14"> </polygon> <polygon id="Stroke-576" stroke="#" stroke-width="2" stroke-linecap="round" stroke-linejoin="round" points="4 52 0 48 38 10 42 14"> </polygon> <path d="M34,22 L30,18" id="Stroke-577" stroke="#" stroke-width="2" stroke-linecap="round" stroke-linejoin="round"> </path> <path d="M38,4 L38,0" id="Stroke-578" stroke="#" stroke-width="2" stroke-linecap="round" stroke-linejoin="round"> </path> <path d="M48,14 L52,14" id="Stroke-579" stroke="#" stroke-width="2" stroke-linecap="round" stroke-linejoin="round"> </path> <path d="M28,14 L24,14" id="Stroke-580" stroke="#" stroke-width="2" stroke-linecap="round" stroke-linejoin="round"> </path> <path d="M38,24 L38,28" id="Stroke-581" stroke="#" stroke-width="2" stroke-linecap="round" stroke-linejoin="round"> </path> <path d="M33,5.3398 L31,1.8748" id="Stroke-582" stroke="#" stroke-width="2" stroke-linecap="round" stroke-linejoin="round"> </path> <path d="M46.6602,9 L50.1252,7" id="Stroke-583" stroke="#" stroke-width="2" stroke-linecap="round" stroke-linejoin="round"> </path> <path d="M43,22.6602 L45,26.1252" id="Stroke-584" stroke="#" stroke-width="2" stroke-linecap="round" stroke-linejoin="round"> </path> <path d="M29.3398,9 L25.8748,7" id="Stroke-585" stroke="#" stroke-width="2" stroke-linecap="round" stroke-linejoin="round"> </path> <path d="M43,5.3398 L45,1.8748" id="Stroke-586" stroke="#" stroke-width="2" stroke-linecap="round" stroke-linejoin="round"> </path> <path d="M46.6602,19 L50.1252,21" id="Stroke-587" stroke="#" stroke-width="2" stroke-linecap="round" stroke-linejoin="round"> </path> </g> </g> </g> </g>
</svg>